<mxfile host="app.diagrams.net" modified="2022-05-25T08:27:34.390Z" agent="5.0 (Windows NT 10.0; Win64; x64) AppleWebKit/537.36 (KHTML, like Gecko) Chrome/101.0.4951.67 Safari/537.36" etag="0-izCncIWU1Qtnp6oNzf" version="18.1.2" type="github">
  <diagram id="qtIUD4IkOzIMsGifVZxG" name="Page-1">
    <mxGraphModel dx="782" dy="436" grid="1" gridSize="10" guides="1" tooltips="1" connect="1" arrows="1" fold="1" page="1" pageScale="1" pageWidth="850" pageHeight="1100" math="0" shadow="0">
      <root>
        <mxCell id="0" />
        <mxCell id="1" parent="0" />
        <mxCell id="yYf5m4HLyr3VCPDceTSp-47" value="" style="rounded=1;whiteSpace=wrap;html=1;fontSize=9;dashed=1;dashPattern=1 1;strokeWidth=0;glass=0;shadow=0;gradientColor=none;" parent="1" vertex="1">
          <mxGeometry x="440" y="320" width="180" height="190" as="geometry" />
        </mxCell>
        <mxCell id="yYf5m4HLyr3VCPDceTSp-1" value="&lt;font style=&quot;font-size: 9px;&quot;&gt;GIS&lt;/font&gt;" style="rounded=1;whiteSpace=wrap;html=1;" parent="1" vertex="1">
          <mxGeometry x="40" y="485" width="70" height="40" as="geometry" />
        </mxCell>
        <mxCell id="yYf5m4HLyr3VCPDceTSp-2" value="&lt;b&gt;Orchestrator&lt;/b&gt;" style="rounded=1;whiteSpace=wrap;html=1;" parent="1" vertex="1">
          <mxGeometry x="280" y="320" width="120" height="370" as="geometry" />
        </mxCell>
        <mxCell id="yYf5m4HLyr3VCPDceTSp-3" value="" style="endArrow=classic;html=1;rounded=0;entryX=0;entryY=0.5;entryDx=0;entryDy=0;exitX=1;exitY=0.5;exitDx=0;exitDy=0;" parent="1" source="yYf5m4HLyr3VCPDceTSp-1" target="yYf5m4HLyr3VCPDceTSp-2" edge="1">
          <mxGeometry width="50" height="50" relative="1" as="geometry">
            <mxPoint x="150" y="550" as="sourcePoint" />
            <mxPoint x="200" y="500" as="targetPoint" />
          </mxGeometry>
        </mxCell>
        <mxCell id="yYf5m4HLyr3VCPDceTSp-4" value="&lt;font style=&quot;font-size: 9px;&quot;&gt;Release dates, casino group, game distribution&lt;/font&gt;" style="text;html=1;strokeColor=none;fillColor=none;align=center;verticalAlign=middle;whiteSpace=wrap;rounded=0;" parent="1" vertex="1">
          <mxGeometry x="130" y="470" width="120" height="30" as="geometry" />
        </mxCell>
        <mxCell id="yYf5m4HLyr3VCPDceTSp-5" value="Flatfile" style="rounded=1;whiteSpace=wrap;html=1;fontSize=9;" parent="1" vertex="1">
          <mxGeometry x="650" y="330" width="70" height="60" as="geometry" />
        </mxCell>
        <mxCell id="yYf5m4HLyr3VCPDceTSp-9" value="Sunshine" style="rounded=1;whiteSpace=wrap;html=1;fontSize=9;" parent="1" vertex="1">
          <mxGeometry x="650" y="410" width="70" height="80" as="geometry" />
        </mxCell>
        <mxCell id="yYf5m4HLyr3VCPDceTSp-10" value="PAC/RFC" style="rounded=1;whiteSpace=wrap;html=1;fontSize=9;" parent="1" vertex="1">
          <mxGeometry x="650" y="520" width="70" height="120" as="geometry" />
        </mxCell>
        <mxCell id="yYf5m4HLyr3VCPDceTSp-13" value="Wanted State Generation" style="text;html=1;strokeColor=none;fillColor=none;align=center;verticalAlign=middle;whiteSpace=wrap;rounded=0;fontSize=9;" parent="1" vertex="1">
          <mxGeometry x="460" y="340" width="130" height="15" as="geometry" />
        </mxCell>
        <mxCell id="yYf5m4HLyr3VCPDceTSp-17" value="" style="endArrow=classic;startArrow=classic;html=1;rounded=0;fontSize=9;entryX=0;entryY=0.5;entryDx=0;entryDy=0;exitX=0.994;exitY=0.103;exitDx=0;exitDy=0;exitPerimeter=0;" parent="1" source="yYf5m4HLyr3VCPDceTSp-2" target="yYf5m4HLyr3VCPDceTSp-5" edge="1">
          <mxGeometry width="50" height="50" relative="1" as="geometry">
            <mxPoint x="370" y="530" as="sourcePoint" />
            <mxPoint x="420" y="480" as="targetPoint" />
          </mxGeometry>
        </mxCell>
        <mxCell id="yYf5m4HLyr3VCPDceTSp-18" value="" style="endArrow=classic;startArrow=classic;html=1;rounded=0;fontSize=9;exitX=1;exitY=0.292;exitDx=0;exitDy=0;exitPerimeter=0;entryX=0;entryY=0.25;entryDx=0;entryDy=0;" parent="1" source="yYf5m4HLyr3VCPDceTSp-2" edge="1" target="yYf5m4HLyr3VCPDceTSp-9">
          <mxGeometry width="50" height="50" relative="1" as="geometry">
            <mxPoint x="580" y="500" as="sourcePoint" />
            <mxPoint x="652" y="435" as="targetPoint" />
          </mxGeometry>
        </mxCell>
        <mxCell id="yYf5m4HLyr3VCPDceTSp-20" value="Difference with actual state" style="text;html=1;strokeColor=none;fillColor=none;align=center;verticalAlign=middle;whiteSpace=wrap;rounded=0;fontSize=9;" parent="1" vertex="1">
          <mxGeometry x="460" y="410" width="130" height="15" as="geometry" />
        </mxCell>
        <mxCell id="yYf5m4HLyr3VCPDceTSp-21" value="" style="endArrow=classic;startArrow=classic;html=1;rounded=0;fontSize=9;entryX=-0.019;entryY=0.573;entryDx=0;entryDy=0;entryPerimeter=0;" parent="1" target="yYf5m4HLyr3VCPDceTSp-9" edge="1">
          <mxGeometry width="50" height="50" relative="1" as="geometry">
            <mxPoint x="400" y="456" as="sourcePoint" />
            <mxPoint x="660" y="480" as="targetPoint" />
          </mxGeometry>
        </mxCell>
        <mxCell id="yYf5m4HLyr3VCPDceTSp-22" value="Deploy differences" style="text;html=1;strokeColor=none;fillColor=none;align=center;verticalAlign=middle;whiteSpace=wrap;rounded=0;fontSize=9;" parent="1" vertex="1">
          <mxGeometry x="450" y="437.5" width="130" height="15" as="geometry" />
        </mxCell>
        <mxCell id="yYf5m4HLyr3VCPDceTSp-23" value="" style="endArrow=classic;startArrow=classic;html=1;rounded=0;fontSize=9;exitX=1.011;exitY=0.595;exitDx=0;exitDy=0;exitPerimeter=0;entryX=0;entryY=0.159;entryDx=0;entryDy=0;entryPerimeter=0;" parent="1" source="yYf5m4HLyr3VCPDceTSp-2" edge="1" target="yYf5m4HLyr3VCPDceTSp-10">
          <mxGeometry width="50" height="50" relative="1" as="geometry">
            <mxPoint x="370" y="530" as="sourcePoint" />
            <mxPoint x="650" y="559" as="targetPoint" />
          </mxGeometry>
        </mxCell>
        <mxCell id="yYf5m4HLyr3VCPDceTSp-24" value="Create RFC" style="text;html=1;strokeColor=none;fillColor=none;align=center;verticalAlign=middle;whiteSpace=wrap;rounded=0;fontSize=9;" parent="1" vertex="1">
          <mxGeometry x="460" y="525" width="130" height="15" as="geometry" />
        </mxCell>
        <mxCell id="yYf5m4HLyr3VCPDceTSp-25" value="" style="endArrow=classic;startArrow=classic;html=1;rounded=0;fontSize=9;entryX=0.019;entryY=0.176;entryDx=0;entryDy=0;entryPerimeter=0;exitX=1.006;exitY=0.647;exitDx=0;exitDy=0;exitPerimeter=0;" parent="1" edge="1">
          <mxGeometry width="50" height="50" relative="1" as="geometry">
            <mxPoint x="399.39000000000004" y="570.03" as="sourcePoint" />
            <mxPoint x="649.9999999999999" y="570" as="targetPoint" />
          </mxGeometry>
        </mxCell>
        <mxCell id="yYf5m4HLyr3VCPDceTSp-26" value="Populate RFC" style="text;html=1;strokeColor=none;fillColor=none;align=center;verticalAlign=middle;whiteSpace=wrap;rounded=0;fontSize=9;" parent="1" vertex="1">
          <mxGeometry x="460" y="550" width="130" height="15" as="geometry" />
        </mxCell>
        <mxCell id="yYf5m4HLyr3VCPDceTSp-27" value="" style="endArrow=classic;startArrow=classic;html=1;rounded=0;fontSize=9;" parent="1" edge="1">
          <mxGeometry width="50" height="50" relative="1" as="geometry">
            <mxPoint x="400" y="600" as="sourcePoint" />
            <mxPoint x="650" y="600" as="targetPoint" />
          </mxGeometry>
        </mxCell>
        <mxCell id="yYf5m4HLyr3VCPDceTSp-28" value="Verify RFC" style="text;html=1;strokeColor=none;fillColor=none;align=center;verticalAlign=middle;whiteSpace=wrap;rounded=0;fontSize=9;" parent="1" vertex="1">
          <mxGeometry x="460" y="577.5" width="130" height="15" as="geometry" />
        </mxCell>
        <mxCell id="yYf5m4HLyr3VCPDceTSp-29" value="" style="endArrow=classic;startArrow=classic;html=1;rounded=0;fontSize=9;" parent="1" edge="1">
          <mxGeometry width="50" height="50" relative="1" as="geometry">
            <mxPoint x="400" y="630" as="sourcePoint" />
            <mxPoint x="650" y="630" as="targetPoint" />
          </mxGeometry>
        </mxCell>
        <mxCell id="yYf5m4HLyr3VCPDceTSp-30" value="Deployment Results" style="text;html=1;strokeColor=none;fillColor=none;align=center;verticalAlign=middle;whiteSpace=wrap;rounded=0;fontSize=9;" parent="1" vertex="1">
          <mxGeometry x="460" y="610" width="130" height="15" as="geometry" />
        </mxCell>
        <mxCell id="yYf5m4HLyr3VCPDceTSp-31" value="GameRepo" style="rounded=1;whiteSpace=wrap;html=1;fontSize=9;" parent="1" vertex="1">
          <mxGeometry x="760" y="390" width="70" height="40" as="geometry" />
        </mxCell>
        <mxCell id="yYf5m4HLyr3VCPDceTSp-32" value="GDS" style="rounded=1;whiteSpace=wrap;html=1;fontSize=9;" parent="1" vertex="1">
          <mxGeometry x="760" y="470" width="70" height="40" as="geometry" />
        </mxCell>
        <mxCell id="yYf5m4HLyr3VCPDceTSp-33" value="" style="endArrow=classic;html=1;rounded=0;fontSize=9;entryX=0;entryY=0.5;entryDx=0;entryDy=0;exitX=1;exitY=0.25;exitDx=0;exitDy=0;" parent="1" source="yYf5m4HLyr3VCPDceTSp-9" target="yYf5m4HLyr3VCPDceTSp-31" edge="1">
          <mxGeometry width="50" height="50" relative="1" as="geometry">
            <mxPoint x="590" y="530" as="sourcePoint" />
            <mxPoint x="640" y="480" as="targetPoint" />
            <Array as="points">
              <mxPoint x="730" y="410" />
            </Array>
          </mxGeometry>
        </mxCell>
        <mxCell id="yYf5m4HLyr3VCPDceTSp-34" value="" style="endArrow=classic;html=1;rounded=0;fontSize=9;entryX=0;entryY=0.5;entryDx=0;entryDy=0;exitX=1;exitY=0.75;exitDx=0;exitDy=0;" parent="1" target="yYf5m4HLyr3VCPDceTSp-32" edge="1" source="yYf5m4HLyr3VCPDceTSp-9">
          <mxGeometry width="50" height="50" relative="1" as="geometry">
            <mxPoint x="720" y="500" as="sourcePoint" />
            <mxPoint x="640" y="480" as="targetPoint" />
            <Array as="points">
              <mxPoint x="730" y="490" />
            </Array>
          </mxGeometry>
        </mxCell>
        <mxCell id="yYf5m4HLyr3VCPDceTSp-39" value="Database" style="shape=cylinder3;whiteSpace=wrap;html=1;boundedLbl=1;backgroundOutline=1;size=15;fontSize=9;" parent="1" vertex="1">
          <mxGeometry x="420" y="720" width="60" height="80" as="geometry" />
        </mxCell>
        <mxCell id="yYf5m4HLyr3VCPDceTSp-40" value="" style="endArrow=classic;html=1;rounded=0;fontSize=9;entryX=0;entryY=0.5;entryDx=0;entryDy=0;entryPerimeter=0;exitX=0.5;exitY=1;exitDx=0;exitDy=0;" parent="1" source="yYf5m4HLyr3VCPDceTSp-2" target="yYf5m4HLyr3VCPDceTSp-39" edge="1">
          <mxGeometry width="50" height="50" relative="1" as="geometry">
            <mxPoint x="350" y="630" as="sourcePoint" />
            <mxPoint x="400" y="580" as="targetPoint" />
            <Array as="points">
              <mxPoint x="340" y="760" />
            </Array>
          </mxGeometry>
        </mxCell>
        <mxCell id="yYf5m4HLyr3VCPDceTSp-41" value="Save Events" style="text;html=1;strokeColor=none;fillColor=none;align=center;verticalAlign=middle;whiteSpace=wrap;rounded=0;fontSize=9;" parent="1" vertex="1">
          <mxGeometry x="325" y="740" width="100" height="15" as="geometry" />
        </mxCell>
        <mxCell id="yYf5m4HLyr3VCPDceTSp-42" value="JobStore" style="shape=cylinder3;whiteSpace=wrap;html=1;boundedLbl=1;backgroundOutline=1;size=15;fontSize=9;" parent="1" vertex="1">
          <mxGeometry x="140" y="720" width="60" height="80" as="geometry" />
        </mxCell>
        <mxCell id="yYf5m4HLyr3VCPDceTSp-44" value="" style="endArrow=classic;html=1;rounded=0;fontSize=9;exitX=0.25;exitY=1;exitDx=0;exitDy=0;entryX=1;entryY=0.5;entryDx=0;entryDy=0;entryPerimeter=0;" parent="1" source="yYf5m4HLyr3VCPDceTSp-2" target="yYf5m4HLyr3VCPDceTSp-42" edge="1">
          <mxGeometry width="50" height="50" relative="1" as="geometry">
            <mxPoint x="350" y="630" as="sourcePoint" />
            <mxPoint x="400" y="580" as="targetPoint" />
            <Array as="points">
              <mxPoint x="310" y="760" />
            </Array>
          </mxGeometry>
        </mxCell>
        <mxCell id="yYf5m4HLyr3VCPDceTSp-45" value="Schedules Jobs" style="text;html=1;strokeColor=none;fillColor=none;align=center;verticalAlign=middle;whiteSpace=wrap;rounded=0;fontSize=9;" parent="1" vertex="1">
          <mxGeometry x="200" y="740" width="100" height="15" as="geometry" />
        </mxCell>
        <mxCell id="yYf5m4HLyr3VCPDceTSp-48" value="Pub Sub" style="text;html=1;strokeColor=none;fillColor=none;align=center;verticalAlign=middle;whiteSpace=wrap;rounded=0;shadow=0;glass=0;dashed=1;dashPattern=1 1;fontSize=9;" parent="1" vertex="1">
          <mxGeometry x="530" y="300" width="80" height="20" as="geometry" />
        </mxCell>
        <mxCell id="dMlzHGweWHfCFyb71Z80-1" value="&lt;font style=&quot;font-size: 9px;&quot;&gt;Slack &lt;br&gt;Notifications&lt;/font&gt;" style="ellipse;shape=cloud;whiteSpace=wrap;html=1;" parent="1" vertex="1">
          <mxGeometry x="560" y="720" width="100" height="80" as="geometry" />
        </mxCell>
        <mxCell id="dMlzHGweWHfCFyb71Z80-2" value="" style="endArrow=classic;html=1;rounded=0;fontSize=9;entryX=0.25;entryY=0.25;entryDx=0;entryDy=0;entryPerimeter=0;" parent="1" target="dMlzHGweWHfCFyb71Z80-1" edge="1">
          <mxGeometry width="50" height="50" relative="1" as="geometry">
            <mxPoint x="400" y="680" as="sourcePoint" />
            <mxPoint x="430" y="590" as="targetPoint" />
            <Array as="points">
              <mxPoint x="540" y="680" />
            </Array>
          </mxGeometry>
        </mxCell>
        <mxCell id="95uB3oRFNQleIdyPhDCI-8" value="Cloudblaster" style="rounded=1;whiteSpace=wrap;html=1;fontSize=9;" vertex="1" parent="1">
          <mxGeometry x="720" y="660" width="70" height="60" as="geometry" />
        </mxCell>
        <mxCell id="95uB3oRFNQleIdyPhDCI-9" value="" style="endArrow=classic;startArrow=classic;html=1;rounded=0;entryX=0;entryY=0.5;entryDx=0;entryDy=0;" edge="1" parent="1" target="95uB3oRFNQleIdyPhDCI-8">
          <mxGeometry width="50" height="50" relative="1" as="geometry">
            <mxPoint x="400" y="656" as="sourcePoint" />
            <mxPoint x="590" y="480" as="targetPoint" />
            <Array as="points">
              <mxPoint x="560" y="656" />
              <mxPoint x="580" y="690" />
            </Array>
          </mxGeometry>
        </mxCell>
        <mxCell id="95uB3oRFNQleIdyPhDCI-10" value="Test game launch" style="text;html=1;strokeColor=none;fillColor=none;align=center;verticalAlign=middle;whiteSpace=wrap;rounded=0;fontSize=9;" vertex="1" parent="1">
          <mxGeometry x="580" y="675" width="130" height="15" as="geometry" />
        </mxCell>
      </root>
    </mxGraphModel>
  </diagram>
</mxfile>
